<svg width="17" height="18" viewBox="0 0 17 18" fill="none" xmlns="http://www.w3.org/2000/svg">
<path fill-rule="evenodd" clip-rule="evenodd" d="M14.0056 3.37018C13.401 2.72562 12.5817 2.36229 11.7266 2.35954H5.27339C4.41828 2.36229 3.59895 2.72562 2.99439 3.37018C2.38975 4.01467 2.04893 4.88811 2.04635 5.79969V12.679C2.04893 13.5906 2.38975 14.4641 2.99439 15.1085C3.59895 15.7531 4.41828 16.1164 5.27339 16.1192H11.7266C12.5817 16.1164 13.401 15.7531 14.0056 15.1085C14.6102 14.4641 14.951 13.5906 14.9536 12.679V5.79969C14.951 4.88811 14.6102 4.01467 14.0056 3.37018ZM5.27339 0.983765H11.7266C14.2113 0.983765 16.2442 3.15082 16.2442 5.79969V12.679C16.2442 15.3278 14.2113 17.495 11.7266 17.495H5.27339C2.78861 17.495 0.755798 15.3278 0.755798 12.679V5.79969C0.755798 3.15082 2.78861 0.983765 5.27339 0.983765ZM12.1569 5.62577C12.316 5.73915 12.5032 5.79969 12.6946 5.79969C12.8218 5.79992 12.9478 5.77343 13.0654 5.72169C13.183 5.66996 13.2898 5.59393 13.3798 5.49808C13.4697 5.40216 13.541 5.28831 13.5895 5.16298C13.6381 5.03766 13.6629 4.90329 13.6626 4.76774C13.6626 4.56363 13.6059 4.36408 13.4995 4.19441C13.3931 4.02466 13.2419 3.89241 13.0651 3.81433C12.8882 3.73618 12.6936 3.71574 12.5058 3.7556C12.318 3.79539 12.1455 3.89367 12.0102 4.03802C11.8748 4.1823 11.7826 4.3662 11.7452 4.56638C11.7079 4.76656 11.727 4.97405 11.8003 5.16259C11.8736 5.35121 11.9976 5.51231 12.1569 5.62577ZM9.93421 6.95115C9.50968 6.64876 9.01059 6.48734 8.49999 6.48734C7.81555 6.48813 7.15936 6.77833 6.67538 7.29427C6.19141 7.8102 5.91918 8.50973 5.91844 9.23936C5.91844 9.78368 6.06986 10.3157 6.35352 10.7683C6.63718 11.2209 7.04039 11.5736 7.51212 11.7819C7.98378 11.9901 8.50286 12.0447 9.00358 11.9385C9.50437 11.8322 9.96438 11.5702 10.3254 11.1853C10.6864 10.8005 10.9323 10.3101 11.0319 9.77621C11.1315 9.24243 11.0804 8.68907 10.885 8.18618C10.6896 7.68338 10.3587 7.25354 9.93421 6.95115ZM6.3488 5.80724C6.98552 5.35365 7.73412 5.11156 8.49999 5.11156C9.52694 5.11156 10.5118 5.54644 11.238 6.32058C11.9641 7.09472 12.3721 8.14459 12.3721 9.23936C12.3721 10.0557 12.145 10.8538 11.7195 11.5326C11.294 12.2115 10.6893 12.7405 9.98178 13.053C9.27426 13.3654 8.49571 13.4471 7.7446 13.2878C6.99348 13.1285 6.30351 12.7354 5.76201 12.1581C5.22051 11.5809 4.85174 10.8454 4.70231 10.0446C4.55288 9.24392 4.62959 8.41396 4.92261 7.65971C5.21571 6.90547 5.71201 6.26082 6.3488 5.80724Z" fill="#F4F6FA"/>
</svg>
