<svg width="16" height="18" viewBox="0 0 16 18" fill="none" xmlns="http://www.w3.org/2000/svg">
<path d="M3.76941 12.3542C4.37437 12.9109 5.12008 13.1878 5.85193 13.336C5.76681 13.5172 5.69878 13.7246 5.65338 13.9571C5.46904 14.0267 5.27573 14.0645 5.0806 14.0691C4.90047 14.0686 4.71912 14.0292 4.54594 13.9258C4.37191 13.8218 4.18418 13.6399 4.01254 13.3205L4.01196 13.3194L4.00611 13.3083C4.00134 13.2995 3.99483 13.2877 3.98657 13.2733C3.97008 13.2445 3.94651 13.2052 3.91586 13.1587C3.85493 13.0663 3.7641 12.9423 3.64313 12.8148C3.40518 12.5639 3.02165 12.2697 2.49622 12.2199L2.47844 12.2182H2.46058H2.45702C2.43198 12.2182 2.35819 12.2197 2.2714 12.2332C2.19887 12.2444 2.05128 12.273 1.9273 12.3652C1.85765 12.417 1.77797 12.502 1.74167 12.6291C1.70482 12.7581 1.72706 12.8799 1.7686 12.9765C1.84209 13.1475 1.99907 13.2956 2.18095 13.4318L2.20631 13.4508L2.22895 13.4625C2.22955 13.4628 2.23029 13.4633 2.23118 13.4638C2.23721 13.4676 2.24998 13.4759 2.26825 13.4895C2.30472 13.5168 2.36352 13.5659 2.43468 13.6439C2.5752 13.7979 2.76895 14.0699 2.93283 14.5201L2.93553 14.529C2.93992 14.5429 2.94606 14.5615 2.95417 14.584C2.97037 14.6289 2.99458 14.6899 3.02872 14.7617C3.09669 14.9046 3.20594 15.0943 3.37295 15.2845C3.71469 15.6738 4.28402 16.047 5.16977 16.047L5.17282 16.047C5.31481 16.0459 5.45653 16.0367 5.59735 16.0197C5.5989 16.2357 5.60057 16.4262 5.60198 16.586C5.60383 16.7969 5.60522 16.9545 5.60522 17.0471C5.60522 17.0625 5.60294 17.0771 5.59939 17.0887C5.59793 17.0935 5.59649 17.0971 5.5953 17.0996C5.59101 17.1003 5.58428 17.1011 5.57456 17.1011L5.57322 17.1011C5.5626 17.1011 5.55224 17.1004 5.54214 17.0989C2.55618 15.998 0.377623 12.9003 0.377623 9.21572C0.377623 4.59226 3.80091 0.898863 7.95349 0.898863C12.1061 0.898863 15.5294 4.59226 15.5294 9.21572C15.5294 12.8962 13.3548 15.997 10.3663 17.0983C10.3534 17.1002 10.3403 17.1011 10.3272 17.1011H10.3253C10.3176 17.1011 10.3119 17.1006 10.3078 17.1001C10.3068 17.0976 10.3056 17.0944 10.3045 17.0904C10.3007 17.0778 10.2982 17.0614 10.2982 17.0434C10.2982 16.9508 10.2993 16.7876 10.3009 16.5674C10.3017 16.4537 10.3026 16.3249 10.3035 16.1828C10.3062 15.767 10.3088 15.2409 10.3088 14.6587C10.3088 14.1234 10.2064 13.6774 10.0417 13.3294C10.7746 13.1833 11.5211 12.9094 12.1269 12.3555C12.9137 11.636 13.4014 10.5028 13.4014 8.76151C13.4014 7.80903 13.1134 7.0034 12.6275 6.35313C12.7426 5.93228 12.8739 5.0761 12.4841 3.9999L12.4161 3.81212L12.2226 3.76264C12.1318 3.73942 12.0383 3.72906 11.9447 3.73191C11.5681 3.73368 10.8913 3.88243 9.86863 4.60834C8.60966 4.26748 7.29021 4.26748 6.03123 4.60834C5.00855 3.88243 4.33172 3.73368 3.95518 3.73191C3.86156 3.72906 3.76803 3.73942 3.67723 3.76264L3.48374 3.81212L3.41574 3.9999C3.02614 5.07557 3.15711 5.93144 3.27216 6.35251C2.78598 7.00035 2.49844 7.80639 2.49844 8.76151C2.49844 10.4991 2.9853 11.6326 3.76941 12.3542ZM2.22732 13.4615C2.22712 13.4614 2.22722 13.4614 2.22761 13.4617L2.22732 13.4615ZM10.3253 17.4787C10.373 17.4789 10.4207 17.4738 10.4673 17.4635L9.65203 13.3962C9.81489 13.6935 9.93118 14.1124 9.93118 14.6587C9.93118 15.4364 9.92643 16.1141 9.92329 16.5624C9.92174 16.784 9.92058 16.9495 9.92058 17.0434C9.92058 17.2478 10.0306 17.4787 10.3253 17.4787Z" fill="#F4F6FA" stroke="#F4F6FA" stroke-width="0.755245"/>
</svg>
