<svg width="17" height="18" viewBox="0 0 17 18" fill="none" xmlns="http://www.w3.org/2000/svg">
<path d="M15.6687 2.25122V2.25331V16.0638C15.6687 16.6584 15.2504 17.101 14.8037 17.101H1.88137C1.40811 17.101 0.935545 16.6287 0.935545 16.0638V2.25331C0.935545 1.73876 1.36196 1.34503 1.88137 1.34503H14.8076C15.2961 1.34503 15.6717 1.70802 15.6687 2.25122ZM5.35894 15.1079H5.73657V14.7303V7.3758V6.99817H5.35894H3.14013H2.7625V7.3758V14.7303V15.1079H3.14013H5.35894ZM5.90222 4.98887L5.90231 4.98887L5.90213 4.98034C5.89254 4.54572 5.75322 4.13672 5.4787 3.83116C5.19965 3.52056 4.80304 3.34252 4.33841 3.34252C3.87443 3.34252 3.47244 3.52095 3.18902 3.82965C2.9085 4.13519 2.76287 4.54718 2.76287 4.98867C2.76287 5.8598 3.35131 6.63522 4.31038 6.63522H4.32631C4.79782 6.63522 5.20047 6.4523 5.48212 6.14103C5.76013 5.83379 5.90199 5.42255 5.90222 4.98887ZM13.4682 15.1079H13.8458L13.8458 14.7303L13.8462 10.4337V10.4337C13.8462 9.27136 13.556 8.36564 13.0218 7.74492C12.4822 7.11782 11.7315 6.82606 10.9103 6.82606C10.2395 6.82606 9.74008 7.03026 9.36238 7.31683C9.33654 7.33643 9.31135 7.35637 9.28679 7.37658V7.3758V6.99817H8.90917H6.69035H6.31273V7.3758V14.7303V15.1079H6.69035H8.90917H9.28679V14.7303V10.5413C9.28679 10.3312 9.30484 10.1819 9.33766 10.098L9.33769 10.098L9.33956 10.093C9.47211 9.73926 9.73157 9.465 10.1237 9.465C10.4018 9.465 10.5602 9.56841 10.6689 9.73944C10.7943 9.93692 10.8718 10.2585 10.8718 10.709V14.7303V15.1079H11.2494H13.4682Z" fill="#F4F6FA" stroke="#F4F6FA" stroke-width="0.755245"/>
</svg>
