<svg width="109" height="34" viewBox="0 0 109 34" fill="none" xmlns="http://www.w3.org/2000/svg">
<g clip-path="url(#clip0_6412_167)">
<path d="M0.44812 26V0.800016H16.7201V4.50802H5.05612V11.564H14.4881V15.2H5.05612V26H0.44812ZM27.895 26.432C26.095 26.432 24.499 26.048 23.107 25.28C21.715 24.512 20.623 23.432 19.831 22.04C19.039 20.648 18.643 19.04 18.643 17.216C18.643 15.368 19.027 13.724 19.795 12.284C20.587 10.844 21.667 9.72802 23.035 8.93602C24.427 8.12002 26.059 7.71202 27.931 7.71202C29.683 7.71202 31.231 8.09602 32.575 8.86402C33.919 9.63202 34.963 10.688 35.707 12.032C36.475 13.352 36.859 14.828 36.859 16.46C36.859 16.724 36.847 17 36.823 17.288C36.823 17.576 36.811 17.876 36.787 18.188H23.215C23.311 19.58 23.791 20.672 24.655 21.464C25.543 22.256 26.611 22.652 27.859 22.652C28.795 22.652 29.575 22.448 30.199 22.04C30.847 21.608 31.327 21.056 31.639 20.384H36.319C35.983 21.512 35.419 22.544 34.627 23.48C33.859 24.392 32.899 25.112 31.747 25.64C30.619 26.168 29.335 26.432 27.895 26.432ZM27.931 11.456C26.803 11.456 25.807 11.78 24.943 12.428C24.079 13.052 23.527 14.012 23.287 15.308H32.179C32.107 14.132 31.675 13.196 30.883 12.5C30.091 11.804 29.107 11.456 27.931 11.456ZM40.7347 26V0.0800171H45.3427V26H40.7347ZM52.5351 5.37202C51.6951 5.37202 50.9991 5.12002 50.4471 4.61602C49.9191 4.11202 49.6551 3.47602 49.6551 2.70802C49.6551 1.94002 49.9191 1.31602 50.4471 0.836016C50.9991 0.332017 51.6951 0.0800171 52.5351 0.0800171C53.3751 0.0800171 54.0591 0.332017 54.5871 0.836016C55.1391 1.31602 55.4151 1.94002 55.4151 2.70802C55.4151 3.47602 55.1391 4.11202 54.5871 4.61602C54.0591 5.12002 53.3751 5.37202 52.5351 5.37202ZM50.2311 26V8.14402H54.8391V26H50.2311ZM59.6487 33.92V8.14402H63.7527L64.2567 10.7C64.8327 9.90802 65.5887 9.21202 66.5247 8.61202C67.4847 8.01202 68.7207 7.71202 70.2327 7.71202C71.9127 7.71202 73.4127 8.12002 74.7327 8.93602C76.0527 9.75202 77.0967 10.868 77.8647 12.284C78.6327 13.7 79.0167 15.308 79.0167 17.108C79.0167 18.908 78.6327 20.516 77.8647 21.932C77.0967 23.324 76.0527 24.428 74.7327 25.244C73.4127 26.036 71.9127 26.432 70.2327 26.432C68.8887 26.432 67.7127 26.18 66.7047 25.676C65.6967 25.172 64.8807 24.464 64.2567 23.552V33.92H59.6487ZM69.2607 22.4C70.7247 22.4 71.9367 21.908 72.8967 20.924C73.8567 19.94 74.3367 18.668 74.3367 17.108C74.3367 15.548 73.8567 14.264 72.8967 13.256C71.9367 12.248 70.7247 11.744 69.2607 11.744C67.7727 11.744 66.5487 12.248 65.5887 13.256C64.6527 14.24 64.1847 15.512 64.1847 17.072C64.1847 18.632 64.6527 19.916 65.5887 20.924C66.5487 21.908 67.7727 22.4 69.2607 22.4ZM91.8091 26.432C90.0091 26.432 88.4131 26.048 87.0211 25.28C85.6291 24.512 84.5371 23.432 83.7451 22.04C82.9531 20.648 82.5571 19.04 82.5571 17.216C82.5571 15.368 82.9411 13.724 83.7091 12.284C84.5011 10.844 85.5811 9.72802 86.9491 8.93602C88.3411 8.12002 89.9731 7.71202 91.8451 7.71202C93.5971 7.71202 95.1451 8.09602 96.4891 8.86402C97.8331 9.63202 98.8771 10.688 99.6211 12.032C100.389 13.352 100.773 14.828 100.773 16.46C100.773 16.724 100.761 17 100.737 17.288C100.737 17.576 100.725 17.876 100.701 18.188H87.1291C87.2251 19.58 87.7051 20.672 88.5691 21.464C89.4571 22.256 90.5251 22.652 91.7731 22.652C92.7091 22.652 93.4891 22.448 94.1131 22.04C94.7611 21.608 95.2411 21.056 95.5531 20.384H100.233C99.8971 21.512 99.3331 22.544 98.5411 23.48C97.7731 24.392 96.8131 25.112 95.6611 25.64C94.5331 26.168 93.2491 26.432 91.8091 26.432ZM91.8451 11.456C90.7171 11.456 89.7211 11.78 88.8571 12.428C87.9931 13.052 87.4411 14.012 87.2011 15.308H96.0931C96.0211 14.132 95.5891 13.196 94.7971 12.5C94.0051 11.804 93.0211 11.456 91.8451 11.456Z" fill="white"/>
<path d="M105.909 26.21C105.209 26.21 104.629 25.99 104.169 25.55C103.729 25.11 103.509 24.58 103.509 23.96C103.509 23.32 103.729 22.78 104.169 22.34C104.629 21.9 105.209 21.68 105.909 21.68C106.609 21.68 107.179 21.9 107.619 22.34C108.079 22.78 108.309 23.32 108.309 23.96C108.309 24.58 108.079 25.11 107.619 25.55C107.179 25.99 106.609 26.21 105.909 26.21Z" fill="#F0A202"/>
</g>
<defs>
<clipPath id="clip0_6412_167">
<rect width="109" height="34" fill="white"/>
</clipPath>
</defs>
</svg>
