<svg width="15" height="16" viewBox="0 0 15 16" fill="none" xmlns="http://www.w3.org/2000/svg">
<path d="M11.8383 3.2351L11.8383 3.23511C13.0715 4.54972 13.8082 6.29947 13.8082 8.13089C13.8082 11.9951 10.8468 15.1164 7.27887 15.1164C6.23749 15.1164 5.17674 14.7739 4.17567 14.2404L4.04219 14.1692L3.8965 14.2099L0.901132 15.0462L1.68726 11.9988L1.72456 11.8542L1.65287 11.7232C1.07778 10.6723 0.74951 9.4458 0.74951 8.22296C0.74951 4.3587 3.71097 1.23749 7.27887 1.23749C8.98676 1.23749 10.6141 1.93003 11.8383 3.2351ZM1.64805 13.9217L1.46856 14.5777L2.12029 14.3832L4.13 13.7834L4.15277 13.7955C5.07999 14.3848 6.1829 14.6751 7.27887 14.6751C10.7043 14.6751 13.3547 11.7218 13.3547 8.31504C13.3547 6.57369 12.8075 5.00514 11.6122 3.73083L11.607 3.72532L11.6016 3.72002C10.4189 2.5562 8.94563 1.86282 7.27887 1.86282C3.93978 1.86282 1.20298 4.8162 1.20298 8.31504C1.20298 9.47949 1.47647 10.6524 2.11973 11.7299L2.11966 11.73L2.12382 11.7366L2.20876 11.8724L1.64805 13.9217ZM9.03344 9.62387C9.05613 9.59258 9.08068 9.55766 9.10425 9.52097H9.15107C9.15342 9.52167 9.1561 9.52249 9.15913 9.52344C9.18513 9.53164 9.22261 9.5455 9.27153 9.56571C9.36872 9.60587 9.49008 9.6623 9.61687 9.72425C9.86866 9.84729 10.1218 9.98216 10.2088 10.0285L10.2093 10.0288C10.2093 10.0288 10.2094 10.0288 10.2094 10.0288C10.2094 10.0288 10.2094 10.0288 10.2094 10.0289C10.2419 10.0462 10.2724 10.0602 10.2956 10.0708C10.3034 10.0743 10.3101 10.0773 10.316 10.08C10.3303 10.0864 10.3403 10.0909 10.3513 10.0962C10.3648 10.1027 10.3719 10.1068 10.3761 10.1094L10.3797 10.1118L10.3805 10.1124L10.381 10.113L10.3834 10.116C10.3858 10.1193 10.3907 10.1268 10.3972 10.1407C10.4109 10.1698 10.4299 10.2234 10.4476 10.3175L10.4882 10.5338C10.4732 10.6394 10.4395 10.7817 10.3788 10.9436L10.3703 10.9663L10.3647 10.99C10.3629 10.9979 10.3466 11.0411 10.2838 11.1136C10.2251 11.1812 10.1438 11.2536 10.0495 11.3206C9.95566 11.3873 9.85777 11.4424 9.77081 11.4795C9.67738 11.5193 9.62352 11.5269 9.61001 11.5269C9.53273 11.5269 9.44451 11.5352 9.37832 11.5414C9.35532 11.5435 9.33498 11.5454 9.31868 11.5466C9.2406 11.5525 9.15511 11.5547 9.03926 11.541C8.80067 11.5128 8.40785 11.4138 7.68963 11.0985L7.68964 11.0985L7.68596 11.0969C6.89879 10.7613 6.23136 10.1428 5.74064 9.57516C5.49767 9.2941 5.30318 9.03159 5.16374 8.83293C5.09402 8.73361 5.03824 8.65051 4.99607 8.58767L4.9939 8.58443C4.9742 8.55506 4.95599 8.52792 4.94136 8.50673C4.94088 8.50603 4.94033 8.50524 4.93973 8.50436C4.93593 8.49883 4.92976 8.48987 4.92203 8.47927C4.89718 8.43321 4.86304 8.37574 4.82973 8.31967C4.81403 8.29324 4.79851 8.26712 4.78424 8.24266C4.71831 8.12963 4.64084 7.99084 4.56659 7.83251C4.41601 7.51143 4.28937 7.13212 4.28937 6.75034C4.28937 5.97903 4.63784 5.60772 4.78723 5.44854L4.79149 5.444C4.83182 5.401 4.86078 5.38997 4.87424 5.38588C4.89216 5.38042 4.90833 5.37927 4.94772 5.37927H4.94874H4.94974H4.95075H4.95176H4.95276H4.95376H4.95476H4.95576H4.95675H4.95774H4.95874H4.95972H4.96071H4.9617H4.96268H4.96366H4.96464H4.96562H4.9666H4.96757H4.96854H4.96951H4.97048H4.97145H4.97241H4.97337H4.97434H4.97529H4.97625H4.97721H4.97816H4.97911H4.98006H4.98101H4.98195H4.9829H4.98384H4.98478H4.98572H4.98666H4.98759H4.98852H4.98946H4.99039H4.99131H4.99224H4.99316H4.99409H4.99501H4.99592H4.99684H4.99776H4.99867H4.99958H5.00049H5.0014H5.00231H5.00321H5.00411H5.00501H5.00591H5.00681H5.00771H5.0086H5.00949H5.01038H5.01127H5.01216H5.01305H5.01393H5.01481H5.01569H5.01657H5.01745H5.01832H5.0192H5.02007H5.02094H5.02181H5.02267H5.02354H5.0244H5.02527H5.02613H5.02698H5.02784H5.0287H5.02955H5.0304H5.03125H5.0321H5.03295H5.03379H5.03464H5.03548H5.03632H5.03716H5.038H5.03883H5.03967H5.0405H5.04133H5.04216H5.04299H5.04382H5.04464H5.04546H5.04629H5.04711H5.04792H5.04874H5.04956H5.05037H5.05118H5.05199H5.0528H5.05361H5.05442H5.05522H5.05603H5.05683H5.05763H5.05843H5.05922H5.06002H5.06081H5.06161H5.0624H5.06319H5.06398H5.06476H5.06555H5.06633H5.06711H5.0679H5.06868H5.06945H5.07023H5.071H5.07178H5.07255H5.07332H5.07409H5.07486H5.07563H5.07639H5.07716H5.07792H5.07868H5.07944H5.0802H5.08095H5.08171H5.08246H5.08321H5.08397H5.08472H5.08546H5.08621H5.08696H5.0877H5.08845H5.08919H5.08993H5.09067H5.0914H5.09214H5.09288H5.09361H5.09434H5.09507H5.0958H5.09653H5.09726H5.09798H5.09871H5.09943H5.10015H5.10087H5.10159H5.10231H5.10303H5.10374H5.10446H5.10517H5.10588H5.10659H5.1073H5.10801H5.10872H5.10942H5.11013H5.11083H5.11153H5.11223H5.11293H5.11363H5.11433H5.11502H5.11572H5.11641H5.1171H5.11779H5.11848H5.11917H5.11986H5.12054H5.12123H5.12191H5.1226H5.12328H5.12396H5.12464H5.12531H5.12599H5.12667H5.12734H5.12801H5.12869H5.12936H5.13003H5.1307H5.13136H5.13203H5.1327H5.13336H5.13402H5.13469H5.13535H5.13601H5.13667H5.13732H5.13798H5.13864H5.13929H5.13995H5.1406H5.14125H5.1419H5.14255H5.1432H5.14384H5.14449H5.14514H5.14578H5.14642H5.14707H5.14771H5.14835H5.14899H5.14962H5.15026H5.1509H5.15153H5.15217H5.1528H5.15343H5.15406H5.15469H5.15532H5.15595H5.15658H5.1572H5.15783H5.15845H5.15907H5.1597H5.16032H5.16094H5.16156H5.16218H5.1628H5.16341H5.16403H5.16464H5.16526H5.16587H5.16648H5.16709H5.1677H5.16831H5.16892H5.16953H5.17014H5.17074H5.17135H5.17195H5.17255H5.17316H5.17376H5.17436H5.17496H5.17556H5.17616H5.17675H5.17735H5.17795H5.17854H5.17913H5.17973H5.18032H5.18091H5.1815H5.18209H5.18268H5.18327H5.18386H5.18444H5.18503H5.18562H5.1862H5.18678H5.18737H5.18795H5.18853H5.18911H5.18969H5.19027H5.19085H5.19143H5.192H5.19258H5.19315H5.19373H5.1943H5.19488H5.19545H5.19602H5.19659H5.19716H5.19773H5.1983H5.19887H5.19944H5.2H5.20057H5.20113H5.2017H5.20226H5.20283H5.20339H5.20395H5.20451H5.20507H5.20563H5.20619H5.20675H5.20731H5.20787H5.20843H5.20898H5.20954H5.21009H5.21065H5.2112H5.21175H5.21231H5.21286H5.21341H5.21396H5.21451H5.21506H5.21561H5.21616H5.21671H5.21726H5.2178H5.21835H5.21889H5.21944H5.21998H5.22053H5.22107H5.22162H5.22216H5.2227H5.22324H5.22378H5.22432H5.22486H5.2254H5.22594H5.22648H5.22702H5.22756H5.22809H5.22863H5.22916H5.2297H5.23024H5.23077H5.2313H5.23184H5.23237H5.2329H5.23344H5.23397H5.2345H5.23503H5.23556H5.23609H5.23662H5.23715H5.23768H5.23821H5.23873H5.23926H5.23979H5.24032H5.24084H5.24137H5.24189H5.24242H5.24294H5.24347H5.24399H5.24452H5.24504H5.24556H5.24609H5.24661H5.24713H5.24765H5.24817H5.24869H5.24921H5.24973H5.25025H5.25077H5.25129H5.25181H5.25233H5.25285H5.25337H5.25388H5.2544H5.25492H5.25543H5.25595H5.25647H5.25698H5.2575H5.25801H5.25853H5.25904H5.25956H5.26007H5.26059H5.2611H5.26162H5.26213H5.26264H5.26315H5.26367H5.26418H5.26469H5.2652H5.26572H5.26623H5.26674H5.26725H5.26776H5.26827H5.26878H5.26929H5.2698H5.27031H5.27082H5.27133H5.27184H5.27235H5.27286H5.27337H5.27388H5.27439C5.27559 5.38269 5.27683 5.38642 5.2781 5.39048L5.28574 5.4149L5.29661 5.43808C5.37637 5.60813 5.50164 5.91887 5.60871 6.20422C5.66175 6.3456 5.7086 6.47613 5.7417 6.57521C5.75839 6.62517 5.77044 6.66372 5.77788 6.69013C5.77892 6.6938 5.77978 6.69696 5.7805 6.69964C5.78235 6.72354 5.78558 6.74503 5.78911 6.76352C5.79075 6.77214 5.79252 6.78041 5.79432 6.78823C5.76365 6.83641 5.74392 6.87866 5.73111 6.90607C5.73013 6.90817 5.72918 6.91018 5.72828 6.91211C5.71652 6.93718 5.7127 6.94475 5.70933 6.9505C5.70873 6.95151 5.70833 6.95214 5.70811 6.95249L5.57891 7.09022L5.44938 7.2283C5.44722 7.23061 5.44475 7.23321 5.44201 7.23609C5.40361 7.27652 5.31255 7.37239 5.26334 7.50355C5.19957 7.6735 5.21869 7.84904 5.29658 8.01511C5.39193 8.21847 5.76231 8.91337 6.33392 9.4226C6.96363 10.0091 7.4778 10.249 7.70344 10.3543C7.74133 10.372 7.77109 10.3859 7.79188 10.3969L7.87517 10.4414H7.96957C7.97464 10.4414 7.97991 10.4414 7.98535 10.4414C8.05698 10.4415 8.15897 10.4417 8.2534 10.4215C8.38278 10.394 8.4946 10.3321 8.59044 10.2299L8.63135 10.1862L8.65677 10.1321C8.66221 10.1205 8.68183 10.0873 8.72589 10.0265C8.76696 9.96984 8.81641 9.90649 8.87143 9.83612L8.87382 9.83307C8.92608 9.76621 8.98354 9.69271 9.03344 9.62387ZM9.13797 9.51749C9.13796 9.51748 9.13847 9.51758 9.13953 9.51783L9.13797 9.51749ZM5.78351 6.71154C5.7842 6.71472 5.78389 6.71397 5.78319 6.71014L5.78351 6.71154Z" fill="#F4F6FA" stroke="#F4F6FA" stroke-width="0.755245"/>
</svg>
